<svg xmlns="http://www.w3.org/2000/svg" width="48" height="48">
    <path d="M48 24a24 24 0 1 1-48 0 24 24 0 1 1 48 0z" fill="#477099"/>
    <path d="M25 34.75l5-12 5 12" fill="none" stroke="#fff" stroke-width="1.5" stroke-linecap="round" stroke-linejoin="round"/>
    <path d="M26 31.25h8" fill="none" stroke="#fff" stroke-width="1.5"/>
    <path d="M13.25 13.75h10M17.25 11.75v12" fill="none" stroke="#fff" stroke-width="1.5" stroke-linecap="round"/>
    <path d="M20.25 26.438c2.326-.688 4-2.513 4-4.688 0-2.76-2.686-5-6-5s-6 2.24-6 5c0 1.824 1.182 3 3 3 2.762 0 4-4 4-4" fill="none" stroke="#fff" stroke-width="1.5" stroke-linecap="round" stroke-linejoin="round"/>
</svg>